<svg xmlns="http://www.w3.org/2000/svg" xmlns:xlink="http://www.w3.org/1999/xlink" width="259.55859375" height="73.5380859375"><path fill="white" stroke="white" d="M21.81 22.62L21.81 22.62L21.81 22.62Q15.45 22.62 11.77 26.85L11.77 26.85L11.77 26.85Q8.09 31.09 8.09 38.44L8.09 38.44L8.09 38.44Q8.09 46.01 11.64 50.14L11.64 50.14L11.64 50.14Q15.19 54.26 21.75 54.26L21.75 54.26L21.75 54.26Q25.79 54.26 30.96 52.81L30.96 52.81L30.96 56.74L30.96 56.74Q26.95 58.25 21.07 58.25L21.07 58.25L21.07 58.25Q12.55 58.25 7.92 53.08L7.92 53.08L7.92 53.08Q3.30 47.91 3.30 38.39L3.30 38.39L3.30 38.39Q3.30 32.43 5.52 27.95L5.52 27.95L5.52 27.95Q7.75 23.47 11.96 21.04L11.96 21.04L11.96 21.04Q16.16 18.62 21.86 18.62L21.86 18.62L21.86 18.62Q27.92 18.62 32.46 20.83L32.46 20.83L30.56 24.68L30.56 24.68Q26.18 22.62 21.81 22.62ZM63.65 43.24L63.65 43.24L63.65 43.24Q63.65 50.31 60.09 54.28L60.09 54.28L60.09 54.28Q56.53 58.25 50.26 58.25L50.26 58.25L50.26 58.25Q46.38 58.25 43.37 56.43L43.37 56.43L43.37 56.43Q40.37 54.61 38.73 51.21L38.73 51.21L38.73 51.21Q37.10 47.80 37.10 43.24L37.10 43.24L37.10 43.24Q37.10 36.18 40.63 32.23L40.63 32.23L40.63 32.23Q44.17 28.29 50.44 28.29L50.44 28.29L50.44 28.29Q56.50 28.29 60.08 32.33L60.08 32.33L60.08 32.33Q63.65 36.36 63.65 43.24ZM41.63 43.24L41.63 43.24L41.63 43.24Q41.63 48.78 43.85 51.68L43.85 51.68L43.85 51.68Q46.06 54.58 50.36 54.58L50.36 54.58L50.36 54.58Q54.66 54.58 56.89 51.69L56.89 51.69L56.89 51.69Q59.12 48.81 59.12 43.24L59.12 43.24L59.12 43.24Q59.12 37.73 56.89 34.87L56.89 34.87L56.89 34.87Q54.66 32.01 50.31 32.01L50.31 32.01L50.31 32.01Q46.01 32.01 43.82 34.83L43.82 34.83L43.82 34.83Q41.63 37.65 41.63 43.24ZM96.27 43.24L96.27 43.24L96.27 43.24Q96.27 50.31 92.71 54.28L92.71 54.28L92.71 54.28Q89.15 58.25 82.87 58.25L82.87 58.25L82.87 58.25Q79.00 58.25 75.99 56.43L75.99 56.43L75.99 56.43Q72.98 54.61 71.35 51.21L71.35 51.21L71.35 51.21Q69.71 47.80 69.71 43.24L69.71 43.24L69.71 43.24Q69.71 36.18 73.25 32.23L73.25 32.23L73.25 32.23Q76.78 28.29 83.06 28.29L83.06 28.29L83.06 28.29Q89.12 28.29 92.69 32.33L92.69 32.33L92.69 32.33Q96.27 36.36 96.27 43.24ZM74.25 43.24L74.25 43.24L74.25 43.24Q74.25 48.78 76.46 51.68L76.46 51.68L76.46 51.68Q78.68 54.58 82.98 54.58L82.98 54.58L82.98 54.58Q87.28 54.58 89.50 51.69L89.50 51.69L89.50 51.69Q91.73 48.81 91.73 43.24L91.73 43.24L91.73 43.24Q91.73 37.73 89.50 34.87L89.50 34.87L89.50 34.87Q87.28 32.01 82.92 32.01L82.92 32.01L82.92 32.01Q78.63 32.01 76.44 34.83L76.44 34.83L76.44 34.83Q74.25 37.65 74.25 43.24ZM108.32 16.69L108.32 57.72L103.94 57.72L103.94 16.69L108.32 16.69ZM154.04 47.46L154.04 47.46L154.04 47.46Q154.04 52.55 150.35 55.40L150.35 55.40L150.35 55.40Q146.65 58.25 140.33 58.25L140.33 58.25L140.33 58.25Q133.47 58.25 129.78 56.48L129.78 56.48L129.78 52.15L129.78 52.15Q132.15 53.16 134.95 53.74L134.95 53.74L134.95 53.74Q137.74 54.32 140.48 54.32L140.48 54.32L140.48 54.32Q144.97 54.32 147.23 52.62L147.23 52.62L147.23 52.62Q149.50 50.92 149.50 47.88L149.50 47.88L149.50 47.88Q149.50 45.88 148.70 44.60L148.70 44.60L148.70 44.60Q147.89 43.32 146.01 42.24L146.01 42.24L146.01 42.24Q144.12 41.16 140.27 39.79L140.27 39.79L140.27 39.79Q134.89 37.86 132.59 35.23L132.59 35.23L132.59 35.23Q130.28 32.59 130.28 28.34L130.28 28.34L130.28 28.34Q130.28 23.89 133.63 21.25L133.63 21.25L133.63 21.25Q136.98 18.62 142.49 18.62L142.49 18.62L142.49 18.62Q148.24 18.62 153.06 20.72L153.06 20.72L151.66 24.63L151.66 24.63Q146.89 22.62 142.38 22.62L142.38 22.62L142.38 22.62Q138.82 22.62 136.82 24.15L136.82 24.15L136.82 24.15Q134.82 25.68 134.82 28.40L134.82 28.40L134.82 28.40Q134.82 30.40 135.55 31.68L135.55 31.68L135.55 31.68Q136.29 32.96 138.05 34.03L138.05 34.03L138.05 34.03Q139.80 35.09 143.41 36.39L143.41 36.39L143.41 36.39Q149.48 38.55 151.76 41.03L151.76 41.03L151.76 41.03Q154.04 43.51 154.04 47.46ZM170.60 54.63L170.60 54.63L170.60 54.63Q171.76 54.63 172.84 54.46L172.84 54.46L172.84 54.46Q173.92 54.29 174.55 54.11L174.55 54.11L174.55 57.45L174.55 57.45Q173.84 57.80 172.45 58.02L172.45 58.02L172.45 58.02Q171.07 58.25 169.96 58.25L169.96 58.25L169.96 58.25Q161.58 58.25 161.58 49.41L161.58 49.41L161.58 32.22L157.44 32.22L157.44 30.11L161.58 28.29L163.42 22.12L165.96 22.12L165.96 28.82L174.34 28.82L174.34 32.22L165.96 32.22L165.96 49.23L165.96 49.23Q165.96 51.84 167.19 53.24L167.19 53.24L167.19 53.24Q168.43 54.63 170.60 54.63ZM205.27 43.24L205.27 43.24L205.27 43.24Q205.27 50.31 201.71 54.28L201.71 54.28L201.71 54.28Q198.15 58.25 191.87 58.25L191.87 58.25L191.87 58.25Q188.00 58.25 184.99 56.43L184.99 56.43L184.99 56.43Q181.99 54.61 180.35 51.21L180.35 51.21L180.35 51.21Q178.72 47.80 178.72 43.24L178.72 43.24L178.72 43.24Q178.72 36.18 182.25 32.23L182.25 32.23L182.25 32.23Q185.78 28.29 192.06 28.29L192.06 28.29L192.06 28.29Q198.12 28.29 201.70 32.33L201.70 32.33L201.70 32.33Q205.27 36.36 205.27 43.24ZM183.25 43.24L183.25 43.24L183.25 43.24Q183.25 48.78 185.47 51.68L185.47 51.68L185.47 51.68Q187.68 54.58 191.98 54.58L191.98 54.58L191.98 54.58Q196.28 54.58 198.51 51.69L198.51 51.69L198.51 51.69Q200.73 48.81 200.73 43.24L200.73 43.24L200.73 43.24Q200.73 37.73 198.51 34.87L198.51 34.87L198.51 34.87Q196.28 32.01 191.93 32.01L191.93 32.01L191.93 32.01Q187.63 32.01 185.44 34.83L185.44 34.83L185.44 34.83Q183.25 37.65 183.25 43.24ZM226.13 28.29L226.13 28.29L226.13 28.29Q228.05 28.29 229.58 28.61L229.58 28.61L228.97 32.67L228.97 32.67Q227.18 32.27 225.81 32.27L225.81 32.27L225.81 32.27Q222.30 32.27 219.81 35.12L219.81 35.12L219.81 35.12Q217.32 37.97 217.32 42.21L217.32 42.21L217.32 57.72L212.94 57.72L212.94 28.82L216.55 28.82L217.05 34.17L217.27 34.17L217.27 34.17Q218.87 31.35 221.14 29.82L221.14 29.82L221.14 29.82Q223.41 28.29 226.13 28.29ZM246.11 58.25L246.11 58.25L246.11 58.25Q239.70 58.25 236.00 54.34L236.00 54.34L236.00 54.34Q232.29 50.44 232.29 43.51L232.29 43.51L232.29 43.51Q232.29 36.52 235.74 32.41L235.74 32.41L235.74 32.41Q239.18 28.29 244.98 28.29L244.98 28.29L244.98 28.29Q250.41 28.29 253.57 31.86L253.57 31.86L253.57 31.86Q256.74 35.44 256.74 41.29L256.74 41.29L256.74 44.06L236.83 44.06L236.83 44.06Q236.96 49.15 239.40 51.79L239.40 51.79L239.40 51.79Q241.84 54.42 246.27 54.42L246.27 54.42L246.27 54.42Q250.94 54.42 255.50 52.47L255.50 52.47L255.50 56.37L255.50 56.37Q253.18 57.38 251.11 57.81L251.11 57.81L251.11 57.81Q249.04 58.25 246.11 58.25ZM244.92 31.96L244.92 31.96L244.92 31.96Q241.44 31.96 239.37 34.22L239.37 34.22L239.37 34.22Q237.30 36.49 236.94 40.50L236.94 40.50L252.04 40.50L252.04 40.50Q252.04 36.36 250.20 34.16L250.20 34.16L250.20 34.16Q248.35 31.96 244.92 31.96Z"/></svg>
